# 3ds Max Wavefront OBJ Exporter v0.97b - (c)2007 guruware
# File Created: 26.06.2017 19:03:25

mtllib back lights.mtl

#
# object lincoln_navigator
#

v  -2.2383 -0.2905 -6.8359
v  -2.2559 0.0779 -6.8554
v  -1.9220 -0.2898 -6.8755
v  -2.0059 0.0994 -6.8811
v  -2.2553 0.5283 -6.7963
v  -2.1279 0.5155 -6.8218
v  -1.8936 0.0874 -6.9038
v  -1.8266 -0.1699 -6.8981
v  -1.8382 -0.2531 -6.8868
v  -2.0540 0.4916 -6.8416
v  -2.0095 0.4549 -6.8642
v  2.2559 0.0779 -6.8554
v  2.2383 -0.2905 -6.8359
v  1.9220 -0.2898 -6.8755
v  2.0059 0.0994 -6.8831
v  2.2553 0.5283 -6.7963
v  2.1279 0.5155 -6.8218
v  1.8936 0.0874 -6.9038
v  1.8266 -0.1699 -6.8981
v  1.8382 -0.2531 -6.8868
v  2.0540 0.4916 -6.8416
v  2.0096 0.4549 -6.8642
v  2.5645 0.0789 -6.7256
v  2.5532 0.5152 -6.6747
v  2.6012 0.0761 -6.6436
v  2.6069 -0.2954 -6.6408
v  2.5532 -0.2954 -6.7285
v  2.4146 0.5229 -6.7567
v  2.4429 0.0817 -6.8161
v  2.4372 -0.2926 -6.7991
v  2.2704 0.0817 -6.8557
v  2.2732 0.5285 -6.7963
v  2.2563 -0.2897 -6.8359
v  2.6521 0.4069 -6.2456
v  2.7002 0.0563 -6.1326
v  2.6238 0.4939 -6.3977
v  2.6323 0.4670 -6.3051
v  2.6889 -0.3208 -6.0434
v  -2.5531 0.5152 -6.6747
v  -2.5644 0.0789 -6.7256
v  -2.6012 0.0761 -6.6436
v  -2.6069 -0.2954 -6.6408
v  -2.5531 -0.2954 -6.7285
v  -2.4146 0.5229 -6.7567
v  -2.4429 0.0817 -6.8161
v  -2.4372 -0.2926 -6.7991
v  -2.2704 0.0817 -6.8557
v  -2.2732 0.5285 -6.7963
v  -2.2563 -0.2897 -6.8359
v  -2.7002 0.0563 -6.1326
v  -2.6521 0.4069 -6.2456
v  -2.6238 0.4939 -6.3977
v  -2.6323 0.4670 -6.3051
v  -2.6889 -0.3208 -6.0434
# 54 vertices

vn -0.1238 -0.0584 -0.9906
vn -0.1115 0.0388 -0.9930
vn -0.1143 -0.0497 -0.9922
vn -0.1113 0.0344 -0.9932
vn -0.1602 0.1010 -0.9819
vn -0.1869 0.0848 -0.9787
vn -0.2046 -0.0748 -0.9760
vn -0.2385 -0.0979 -0.9662
vn -0.1167 -0.0396 -0.9924
vn -0.2371 0.0687 -0.9690
vn -0.1927 0.0448 -0.9802
vn -0.4280 0.0387 -0.9029
vn 0.1238 -0.0584 -0.9906
vn 0.1061 -0.0422 -0.9935
vn 0.1198 0.1294 -0.9843
vn 0.1864 0.0894 -0.9784
vn 0.1882 -0.0706 -0.9796
vn 0.2304 -0.0993 -0.9680
vn 0.1148 -0.0441 -0.9924
vn 0.2356 0.0737 -0.9691
vn 0.1759 0.0504 -0.9831
vn 0.4246 0.0436 -0.9043
vn 0.7871 0.0407 -0.6155
vn 0.9111 0.0710 -0.4060
vn 0.9126 0.0247 -0.4082
vn 0.8526 0.0090 -0.5225
vn 0.7389 -0.0172 -0.6736
vn 0.5107 0.1126 -0.8524
vn 0.5964 0.0769 -0.7990
vn 0.5929 0.1446 -0.7922
vn 0.5192 -0.0465 -0.8534
vn 0.2219 0.1271 -0.9668
vn 0.2721 0.1455 -0.9512
vn 0.2234 -0.0475 -0.9736
vn 0.1978 -0.0597 -0.9784
vn 0.9796 0.0741 -0.1868
vn 0.9668 0.0888 -0.2398
vn 0.9863 0.0408 -0.1600
vn 0.9481 0.3178 0.0055
vn 0.9884 -0.0624 -0.1383
vn 0.9818 0.0135 -0.1896
vn -0.7945 0.1073 -0.5977
vn -0.7739 0.0451 -0.6317
vn -0.9464 0.0293 -0.3216
vn -0.9166 0.0109 -0.3997
vn -0.7190 -0.0178 -0.6948
vn -0.5287 0.1196 -0.8403
vn -0.4749 0.0265 -0.8796
vn -0.4593 -0.0471 -0.8870
vn -0.2219 0.1271 -0.9668
vn -0.2721 0.1455 -0.9512
vn -0.2234 -0.0475 -0.9736
vn -0.1978 -0.0597 -0.9784
vn -0.9796 0.0741 -0.1868
vn -0.9793 0.0607 -0.1932
vn -0.9863 0.0408 -0.1600
vn -0.9481 0.3178 0.0055
vn -0.9884 -0.0624 -0.1383
vn -0.9818 0.0135 -0.1896
# 59 vertex normals

vt 1.6722 0.0006 1.0000
vt 1.6393 0.4331 1.0000
vt 1.9374 -0.0014 1.0000
vt 1.8515 0.4564 1.0000
vt 1.6630 0.9657 1.0000
vt 1.7650 0.9490 1.0000
vt 1.9412 0.4409 1.0000
vt 2.0095 0.1382 1.0000
vt 2.0065 0.0409 1.0000
vt 1.8218 0.9197 1.0000
vt 1.8507 0.8755 1.0000
vt 4.3132 0.4238 1.0000
vt 4.3110 -0.0082 1.0000
vt 4.0817 -0.0103 1.0000
vt 4.1327 0.4469 1.0000
vt 4.3211 0.9570 1.0000
vt 4.2266 0.9401 1.0000
vt 4.0499 0.4313 1.0000
vt 4.0083 0.1290 1.0000
vt 4.0204 0.0319 1.0000
vt 4.1708 0.9107 1.0000
vt 4.1350 0.8661 1.0000
vt 4.5592 0.4335 1.0000
vt 4.5577 0.9496 1.0000
vt 4.6048 0.4352 1.0000
vt 4.6146 -0.0013 1.0000
vt 4.5558 -0.0068 1.0000
vt 4.4414 0.9533 1.0000
vt 4.4526 0.4311 1.0000
vt 4.4580 -0.0080 1.0000
vt 4.3232 0.4283 1.0000
vt 4.3335 0.9573 1.0000
vt 4.3234 -0.0073 1.0000
vt 4.7332 0.8486 1.0000
vt 4.7992 0.4433 1.0000
vt 4.6751 0.9415 1.0000
vt 4.7041 0.9156 1.0000
vt 4.8185 0.0054 1.0000
vt 1.4583 0.9568 1.0000
vt 1.4290 0.4412 1.0000
vt 1.4392 0.4417 1.0000
vt 1.4423 0.0049 1.0000
vt 1.4445 0.0007 1.0000
vt 1.5400 0.9616 1.0000
vt 1.4909 0.4400 1.0000
vt 1.5118 0.0004 1.0000
vt 1.6260 0.4376 1.0000
vt 1.6468 0.9660 1.0000
vt 1.6560 0.0015 1.0000
vt 1.6210 0.4421 1.0000
vt 1.5982 0.8493 1.0000
vt 1.5416 0.9446 1.0000
vt 1.5835 0.9172 1.0000
vt 1.6853 0.0025 1.0000
# 54 texture coords

o lincoln_navigator
g lincoln_navigator
usemtl Feux_rouge_D01
s 128
f 1/1/1 2/2/2 3/3/3 
f 3/3/3 2/2/2 4/4/4 
f 2/2/2 5/5/5 4/4/4 
f 4/4/4 5/5/5 6/6/6 
f 4/4/7 7/7/7 8/8/7 
f 8/8/8 9/9/8 4/4/8 
f 9/9/9 3/3/9 4/4/9 
f 4/4/10 6/6/10 10/10/10 
f 7/7/11 4/4/11 11/11/11 
f 10/10/12 11/11/12 4/4/12 
usemtl Feux_rouge_G01
f 12/12/13 13/13/13 14/14/13 
f 12/12/14 14/14/14 15/15/14 
f 16/16/15 12/12/15 15/15/15 
f 16/16/16 15/15/16 17/17/16 
f 18/18/17 15/15/17 19/19/17 
f 20/20/18 19/19/18 15/15/18 
f 14/14/19 20/20/19 15/15/19 
f 17/17/20 15/15/20 21/21/20 
f 15/15/21 18/18/21 22/22/21 
f 22/22/22 21/21/22 15/15/22 
s 2
f 23/23/23 24/24/24 25/25/25 
f 25/25/26 26/26/26 27/27/26 
f 27/27/27 23/23/23 25/25/25 
f 28/28/28 24/24/28 23/23/28 
f 23/23/23 29/29/29 28/28/30 
f 29/29/29 23/23/23 27/27/27 
f 27/27/31 30/30/31 29/29/31 
f 29/29/32 31/31/32 32/32/32 
f 32/32/33 28/28/33 29/29/33 
f 31/31/34 29/29/34 30/30/34 
f 30/30/35 33/33/35 31/31/35 
f 34/34/36 35/35/36 25/25/36 
f 25/25/37 24/24/37 36/36/37 
f 34/34/38 25/25/38 36/36/38 
f 34/34/39 36/36/39 37/37/39 
f 35/35/40 38/38/40 26/26/40 
f 26/26/41 25/25/41 35/35/41 
usemtl Feux_rouge_D01
f 39/39/42 40/40/43 41/41/44 
f 42/42/45 41/41/44 43/43/46 
f 40/40/43 43/43/46 41/41/44 
f 39/39/42 44/44/47 40/40/43 
f 45/45/48 40/40/43 44/44/47 
f 40/40/43 45/45/48 43/43/46 
f 46/46/49 43/43/46 45/45/48 
f 47/47/50 45/45/50 48/48/50 
f 44/44/51 48/48/51 45/45/51 
f 45/45/48 47/47/52 46/46/49 
f 49/49/53 46/46/53 47/47/53 
f 50/50/54 51/51/54 41/41/54 
f 39/39/42 41/41/44 52/52/55 
f 41/41/44 51/51/56 52/52/55 
f 52/52/57 51/51/57 53/53/57 
f 54/54/58 50/50/58 42/42/58 
f 41/41/44 42/42/45 50/50/59 
# 54 faces

